<?xml version="1.0" encoding="UTF-8"?>
<svg width="86.69mm" height="86.69mm" version="1.1" viewBox="0 0 86.69 86.69" xml:space="preserve" xmlns="http://www.w3.org/2000/svg" xmlns:xlink="http://www.w3.org/1999/xlink"><defs><linearGradient id="linearGradient2407"><stop offset="0"/><stop offset=".14297"/><stop stop-color="#fff" offset=".19057"/><stop stop-color="#fff" offset=".4314"/><stop offset=".45882"/><stop offset=".58237"/><stop stop-color="#fff" offset=".6203"/><stop stop-color="#fff" offset=".68118"/><stop offset=".74192"/><stop offset=".7843"/></linearGradient><linearGradient id="linearGradient2409" x1="38.931" x2="48.607" y1="59.132" y2="58.692" gradientUnits="userSpaceOnUse" spreadMethod="reflect" xlink:href="#linearGradient2407"/><linearGradient id="linearGradient2433" x1="60.592" x2="66.747" y1="98.944" y2="99.266" gradientUnits="userSpaceOnUse" spreadMethod="reflect" xlink:href="#linearGradient2407"/><linearGradient id="linearGradient2441" x1="42.415" x2="37.828" y1="88.584" y2="92.574" gradientUnits="userSpaceOnUse" spreadMethod="reflect"><stop stop-color="#f00" offset="0"/><stop stop-color="#f00" offset=".14297"/><stop stop-color="#fff" offset=".19057"/><stop stop-color="#fff" offset=".4314"/><stop stop-color="#f00" offset=".45882"/><stop stop-color="#f00" offset=".58237"/><stop stop-color="#fff" offset=".6203"/><stop stop-color="#fff" offset=".68118"/><stop stop-color="#f00" offset=".74192"/><stop stop-color="#f00" offset=".7843"/></linearGradient><linearGradient id="linearGradient2532" x1="54.984" x2="56.314" y1="47.032" y2="42.976" gradientUnits="userSpaceOnUse" xlink:href="#linearGradient2407"/><linearGradient id="linearGradient2534" x1="64.555" x2="65.894" y1="46.768" y2="43.309" gradientUnits="userSpaceOnUse" xlink:href="#linearGradient2407"/></defs><g transform="translate(-36.238 -31.235)"><g><path d="m79.665 52.515c4.458 3.4682 46.398 2.0539-0.1888 48.748 4.9927-3.814 8.2245-12.717 18.762-0.50536 3.37-6.7455 8.4352-7.2733 15.045-2.1368l9.6446-9.3558c-4.4275 6.4063 2.7292 23.47-15.343 17.323-8.2878 6.1027-16.786 10.745-26.884 4.3032-10.29 6.0016-20.62 12.227-26.509-6.4785-8.735-13.478 29.646-16.446 26.233-33.323z" fill="url(#linearGradient2433)"/><path d="m36.238 85.646 4.2218 6.1172 3.5994-3.2498-1.4589 4.7567 6.0823 0.64649 0.71169-6.6463c3.7162-2.1639 10.379-6.1979 11.952-8.4835 0.97312-1.4144-1.9688-1.5488-2.8498-1.9931l-13.537 6.5296z" fill="url(#linearGradient2441)"/><path d="m53.174 52.411c3.9495-35.732 39.051-23.088 30.721 14.407-5.5658 9.3682-28.038 25.213-35.511 20.649 30.471-21.198-3.524-2.544-4.9926-4.2539-7.6704-9.0923-5.5788-23.671 9.7836-30.802z" fill="url(#linearGradient2409)"/></g><g stroke-width=".52917"><path d="m61.482 47.038a4.5991 6.8829 0 0 1-4.5991 6.8829 4.5991 6.8829 0 0 1-4.5991-6.8829 4.5991 6.8829 0 0 1 4.5991-6.8829 4.5991 6.8829 0 0 1 4.5991 6.8829z" fill="#fff" stroke="#000"/><path d="m60.963 47.032a2.8573 4.7191 0 0 1-2.8573 4.7191 2.8573 4.7191 0 0 1-2.8573-4.7191 2.8573 4.7191 0 0 1 2.8573-4.7191 2.8573 4.7191 0 0 1 2.8573 4.7191z" fill="url(#linearGradient2532)"/><path d="m71.053 46.774a4.5991 6.8829 0 0 1-4.5991 6.8829 4.5991 6.8829 0 0 1-4.5991-6.8829 4.5991 6.8829 0 0 1 4.5991-6.8829 4.5991 6.8829 0 0 1 4.5991 6.8829z" fill="#fff" stroke="#000"/><path d="m70.534 46.768a2.8573 4.7191 0 0 1-2.8573 4.7191 2.8573 4.7191 0 0 1-2.8573-4.7191 2.8573 4.7191 0 0 1 2.8573-4.7191 2.8573 4.7191 0 0 1 2.8573 4.7191z" fill="url(#linearGradient2534)"/></g></g></svg>