<?xml version="1.0" encoding="UTF-8"?>
<svg width="86.69mm" height="106.11mm" version="1.1" viewBox="0 0 86.69 106.11" xml:space="preserve" xmlns="http://www.w3.org/2000/svg" xmlns:xlink="http://www.w3.org/1999/xlink"><defs><linearGradient id="linearGradient2407"><stop offset="0"/><stop offset=".14297"/><stop stop-color="#fff" offset=".19057"/><stop stop-color="#fff" offset=".4314"/><stop offset=".45882"/><stop offset=".58237"/><stop stop-color="#fff" offset=".6203"/><stop stop-color="#fff" offset=".68118"/><stop offset=".74192"/><stop offset=".7843"/></linearGradient><linearGradient id="linearGradient2409" x1="38.931" x2="48.607" y1="59.132" y2="58.692" gradientUnits="userSpaceOnUse" spreadMethod="reflect" xlink:href="#linearGradient2407"/><linearGradient id="linearGradient2433" x1="60.592" x2="66.747" y1="98.944" y2="99.266" gradientUnits="userSpaceOnUse" spreadMethod="reflect" xlink:href="#linearGradient2407"/><linearGradient id="linearGradient2441" x1="42.415" x2="37.828" y1="88.584" y2="92.574" gradientUnits="userSpaceOnUse" spreadMethod="reflect"><stop stop-color="#f00" offset="0"/><stop stop-color="#f00" offset=".14297"/><stop stop-color="#fff" offset=".19057"/><stop stop-color="#fff" offset=".4314"/><stop stop-color="#f00" offset=".45882"/><stop stop-color="#f00" offset=".58237"/><stop stop-color="#fff" offset=".6203"/><stop stop-color="#fff" offset=".68118"/><stop stop-color="#f00" offset=".74192"/><stop stop-color="#f00" offset=".7843"/></linearGradient><linearGradient id="linearGradient2532" x1="54.984" x2="56.314" y1="47.032" y2="42.976" gradientUnits="userSpaceOnUse" xlink:href="#linearGradient2407"/><linearGradient id="linearGradient2534" x1="64.555" x2="65.894" y1="46.768" y2="43.309" gradientUnits="userSpaceOnUse" xlink:href="#linearGradient2407"/></defs><g transform="translate(-36.238 -31.235)"><g><path d="m79.665 52.515c4.458 3.4682 46.398 2.0539-0.1888 48.748 4.9927-3.814 8.2245-12.717 18.762-0.50536 3.37-6.7455 8.4352-7.2733 15.045-2.1368l9.6446-9.3558c-4.4275 6.4063 2.7292 23.47-15.343 17.323-8.2878 6.1027-16.786 10.745-26.884 4.3032-10.29 6.0016-20.62 12.227-26.509-6.4785-8.735-13.478 29.646-16.446 26.233-33.323z" fill="url(#linearGradient2433)"/><path d="m36.238 85.646 4.2218 6.1172 3.5994-3.2498-1.4589 4.7567 6.0823 0.64649 0.71169-6.6463c3.7162-2.1639 10.379-6.1979 11.952-8.4835 0.97312-1.4144-1.9688-1.5488-2.8498-1.9931l-13.537 6.5296z" fill="url(#linearGradient2441)"/><path d="m53.174 52.411c3.9495-35.732 39.051-23.088 30.721 14.407-5.5658 9.3682-28.038 25.213-35.511 20.649 30.471-21.198-3.524-2.544-4.9926-4.2539-7.6704-9.0923-5.5788-23.671 9.7836-30.802z" fill="url(#linearGradient2409)"/></g><g stroke-width=".52917"><path d="m61.482 47.038a4.5991 6.8829 0 0 1-4.5991 6.8829 4.5991 6.8829 0 0 1-4.5991-6.8829 4.5991 6.8829 0 0 1 4.5991-6.8829 4.5991 6.8829 0 0 1 4.5991 6.8829z" fill="#fff" stroke="#000"/><path d="m60.963 47.032a2.8573 4.7191 0 0 1-2.8573 4.7191 2.8573 4.7191 0 0 1-2.8573-4.7191 2.8573 4.7191 0 0 1 2.8573-4.7191 2.8573 4.7191 0 0 1 2.8573 4.7191z" fill="url(#linearGradient2532)"/><path d="m71.053 46.774a4.5991 6.8829 0 0 1-4.5991 6.8829 4.5991 6.8829 0 0 1-4.5991-6.8829 4.5991 6.8829 0 0 1 4.5991-6.8829 4.5991 6.8829 0 0 1 4.5991 6.8829z" fill="#fff" stroke="#000"/><path d="m70.534 46.768a2.8573 4.7191 0 0 1-2.8573 4.7191 2.8573 4.7191 0 0 1-2.8573-4.7191 2.8573 4.7191 0 0 1 2.8573-4.7191 2.8573 4.7191 0 0 1 2.8573 4.7191z" fill="url(#linearGradient2534)"/></g><g transform="scale(.99471 1.0053)" stroke="#fff" stroke-width=".26458" aria-label="pyStrich"><path d="m39.48 125.56h-1.8366c-0.40004 0-0.58188 0.14547-0.58188 0.45459s0.20002 0.47277 0.58188 0.47277h0.891v9.0737h-0.891c-0.38186 0-0.58188 0.16365-0.58188 0.45459 0 0.30913 0.20002 0.47278 0.58188 0.47278h3.5095c0.40004 0 0.60006-0.16365 0.60006-0.47278 0-0.29094-0.20002-0.45459-0.60006-0.45459h-1.6729v-4.0732c0.83645 1.0365 1.8366 1.5092 3.164 1.5092 2.2911 0 4.055-1.6911 4.055-3.855 0-2.182-1.7456-3.8368-4.0731-3.8368-1.3456 0-2.2184 0.43641-3.1458 1.5456zm3.0912 0.67279c1.8002 0 3.1821 1.2729 3.1821 2.9276 0 1.6184-1.382 2.9094-3.1276 2.9094-1.7638 0-3.1458-1.291-3.1458-2.9276 0-1.6002 1.382-2.9094 3.0912-2.9094z"/><path d="m52.682 133.07-1.2365 2.4912h-2.2548c-0.38186 0-0.58188 0.16365-0.58188 0.45459 0 0.30913 0.20002 0.47278 0.58188 0.47278h4.2368c0.40004 0 0.60006-0.16365 0.60006-0.47278 0-0.29094-0.20002-0.45459-0.60006-0.45459h-1.0183l4.5641-9.0737h0.18184c0.40004 0 0.60006-0.16365 0.60006-0.47277s-0.20002-0.45459-0.60006-0.45459h-2.0002c-0.38186 0-0.58188 0.14547-0.58188 0.45459s0.20002 0.47277 0.58188 0.47277h0.83645l-2.7821 5.5824-2.8185-5.5824h0.7819c0.38186 0 0.60006-0.16365 0.60006-0.47277s-0.20002-0.45459-0.60006-0.45459h-2.0911c-0.38186 0-0.58188 0.14547-0.58188 0.45459s0.20002 0.47277 0.58188 0.47277h0.23639z"/><path d="m66.592 123.65c-0.72735-0.63643-1.5638-0.92737-2.5821-0.92737-1.9638 0-3.4367 1.2365-3.4367 2.8548 0 0.80008 0.36367 1.5274 0.98192 1.9457 0.5637 0.40004 1.2365 0.61824 2.5094 0.83645 1.291 0.20002 1.6547 0.30912 2.0911 0.58187 0.47278 0.29094 0.76372 0.83645 0.76372 1.4183 0 1.2547-1.2183 2.182-2.873 2.182-1.6002 0-2.873-0.85464-2.9639-1.982-0.01818-0.36367-0.16365-0.52732-0.45459-0.52732-0.30912 0-0.47278 0.20002-0.47278 0.58187v1.982c0 0.38186 0.16365 0.58188 0.47278 0.58188s0.47278-0.20002 0.47278-0.58188v-0.25457c0.74553 0.72734 1.782 1.1274 2.9639 1.1274 2.2548 0 3.8549-1.291 3.8549-3.073 0-0.94555-0.43641-1.7456-1.1638-2.182-0.5637-0.34549-1.0728-0.49096-2.4912-0.72735-1.1092-0.18184-1.582-0.32731-2.0184-0.61825-0.43641-0.27275-0.6728-0.72735-0.6728-1.2547 0-1.1456 1.0547-1.9638 2.5094-1.9638 1.3638 0 2.4184 0.74553 2.5094 1.7638 0.01818 0.36367 0.18184 0.52732 0.45459 0.52732 0.30912 0 0.47278-0.20002 0.47278-0.58187v-1.8366c0-0.36367-0.16365-0.56369-0.47278-0.56369s-0.45459 0.20002-0.45459 0.56369z"/><path d="m72.975 125.56v-2.0366c0-0.38186-0.16365-0.56369-0.47278-0.56369-0.30912 0-0.47278 0.20002-0.47278 0.56369v2.0366h-1.2547c-0.40004 0-0.60006 0.14547-0.60006 0.45459s0.20002 0.47277 0.60006 0.47277h1.2547v4.6914c0 1.382 1.1456 2.2912 2.9276 2.2912 0.85463 0 1.8729-0.20003 2.7457-0.52733 0.6728-0.25457 0.96374-0.49096 0.96374-0.76372 0-0.25457-0.20002-0.45459-0.45459-0.45459-0.09092 0-0.16365 0.0182-0.32731 0.12729-0.70916 0.40004-1.9638 0.69098-2.9639 0.69098-1.2001 0-1.9457-0.54551-1.9457-1.4002v-4.655h3.8913c0.40004 0 0.60006-0.16365 0.60006-0.47277s-0.20002-0.45459-0.60006-0.45459z"/><path d="m85.03 125.56h-2.2002c-0.38186 0-0.60006 0.16365-0.60006 0.45459s0.2182 0.47277 0.60006 0.47277h1.2547v5.7642h-1.6547c-0.38186 0-0.60006 0.18183-0.60006 0.45459 0 0.30912 0.2182 0.47278 0.60006 0.47278h5.7642c0.36367 0 0.58188-0.16366 0.58188-0.47278 0-0.27276-0.2182-0.45459-0.58188-0.45459h-3.164v-3.7822c1.9638-1.7638 2.5639-2.1639 3.3458-2.1639 0.36367 0 0.69098 0.16365 1.1274 0.60006 0.14547 0.12729 0.20002 0.16365 0.36367 0.16365 0.27276 0 0.47278-0.20002 0.47278-0.49096 0-0.18183-0.1091-0.34549-0.45459-0.61824-0.49096-0.41823-0.891-0.58188-1.4547-0.58188-0.94555 0-1.8002 0.47277-3.4004 1.8911z"/><path d="m97.232 125.56h-3.0003c-0.40004 0-0.58188 0.14547-0.58188 0.45459s0.20002 0.47277 0.58188 0.47277h2.0548v5.7642h-2.8185c-0.38186 0-0.58188 0.16365-0.58188 0.45459 0 0.30912 0.20002 0.47278 0.58188 0.47278h6.5825c0.38186 0 0.60006-0.16366 0.60006-0.47278 0-0.29094-0.20002-0.45459-0.60006-0.45459h-2.8185zm-0.03637-3.6913h-1.2729v2.0548h1.2729z"/><path d="m110.69 126.18c-0.72735-0.56369-1.6911-0.87282-2.7639-0.87282-2.4912 0-4.2732 1.7275-4.2732 4.1459 0 2.3457 1.7456 4.0186 4.2004 4.0186 1.2183 0 2.4184-0.34549 3.3822-1.0001 0.54551-0.36367 0.81827-0.69098 0.81827-0.94555 0-0.23639-0.20002-0.43641-0.43641-0.43641-0.14547 0-0.23639 0.0364-0.40004 0.20002-0.90919 0.83645-2.0184 1.2547-3.3276 1.2547-1.9275 0-3.2912-1.2729-3.2912-3.1094 0-1.9093 1.3274-3.2003 3.2731-3.2003 1.4911 0 2.7094 0.69098 2.8185 1.6002 0.0364 0.36367 0.18184 0.50914 0.45459 0.50914 0.30912 0 0.47278-0.20002 0.47278-0.56369v-1.6365c0-0.38185-0.16366-0.58187-0.47278-0.58187s-0.45459 0.20002-0.45459 0.58187z"/><path d="m116.23 122.22h-1.8366c-0.38186 0-0.58188 0.16366-0.58188 0.4546 0 0.30912 0.20002 0.47277 0.58188 0.47277h0.891v9.11h-0.72735c-0.40004 0-0.60006 0.16365-0.60006 0.45459 0 0.30912 0.2182 0.47278 0.60006 0.47278h2.4002c0.38186 0 0.60006-0.16366 0.60006-0.47278 0-0.29094-0.20002-0.45459-0.60006-0.45459h-0.72735v-4.4186c0.49096-0.54551 0.80009-0.891 0.90919-0.98192 0.52732-0.43641 1.0183-0.61825 1.7093-0.61825 0.70916 0 1.0728 0.1091 1.4729 0.43641 0.43641 0.34549 0.65462 0.76372 0.65462 1.2729v4.3095h-0.72735c-0.38186 0-0.58188 0.16365-0.58188 0.45459 0 0.30912 0.20002 0.47278 0.58188 0.47278h2.4002c0.38186 0 0.60006-0.16366 0.60006-0.47278 0-0.29094-0.20002-0.45459-0.60006-0.45459h-0.72735v-4.3641c0-1.4911-1.2547-2.5821-2.9821-2.5821-1.091 0-1.8366 0.36368-2.7094 1.3274z"/></g></g></svg>
